# xmcd
#
# Track frame offsets: 
#        150
#        12995
#        23848
#        35510
#        55428
#        68165
#        81400
#        94788
#        104110
#
# Disc length: 1599 seconds
#
# Revision: 5
# Processed by: cddbd v1.5.1PL0 Copyright (c) Steve Scherf et al.
# Submitted via: ExactAudioCopy v0.95a5
#
DISCID=78063d09
DTITLE=The International Submarine Band - Safe at Home [Bonus Track]
DYEAR=1993
DGENRE=Country
TTITLE0=Blue Eyes
TTITLE1=I Must Have Been Somebody Else You've Known
TTITLE2=A Satisfied Mind
TTITLE3=Folsom Prison Blues/That's All Right
TTITLE4=Millers Cave
TTITLE5=I Still Miss Someone
TTITLE6=Luxury Liner
TTITLE7=Strong Boy
TTITLE8=Do You Know How It Feels To Be Lonesome?
EXTD=
EXTT0=
EXTT1=
EXTT2=
EXTT3=
EXTT4=
EXTT5=
EXTT6=
EXTT7=
EXTT8=
PLAYORDER=
